<svg id="레이어_1" data-name="레이어 1" xmlns="http://www.w3.org/2000/svg" viewBox="0 0 770 839"><defs><style>.cls-1{fill:none;stroke:#000;stroke-miterlimit:10;stroke-width:30px;}</style></defs><path d="M496.92,204a328.92,328.92,0,1,1-128.44,25.92A327.92,327.92,0,0,1,496.92,204m0-30c-198.83,0-360,161.18-360,360s161.17,360,360,360,360-161.18,360-360-161.18-360-360-360Z" transform="translate(-117 -55)"/><path d="M337.92,442c-16.3,0-29.5,41-29.5,91.5s13.2,91.5,29.5,91.5,29.5-41,29.5-91.5S354.21,442,337.92,442Z" transform="translate(-117 -55)"/><path d="M655.92,442c-16.3,0-29.5,41-29.5,91.5s13.2,91.5,29.5,91.5,29.5-41,29.5-91.5S672.21,442,655.92,442Z" transform="translate(-117 -55)"/><path class="cls-1" d="M687.92,668s-43,136-195,136h8c-152,0-195-136-195-136" transform="translate(-117 -55)"/><ellipse cx="236.5" cy="231.5" rx="236.5" ry="121.5"/><ellipse cx="359" cy="110.5" rx="220" ry="110.5"/><ellipse cx="579.5" cy="229.5" rx="190.5" ry="119.5"/></svg>